<svg width="35" height="36" viewBox="0 0 35 36" fill="none" xmlns="http://www.w3.org/2000/svg">
<path fill-rule="evenodd" clip-rule="evenodd" d="M17.5 34.6685C27.165 34.6685 35 26.9076 35 17.3342C35 7.76074 27.165 0 17.5 0C7.83496 0 0 7.76074 0 17.3342C0 26.9076 7.83496 34.6685 17.5 34.6685ZM17.4998 29.4681C24.2651 29.4681 29.7498 24.0355 29.7498 17.3341C29.7498 10.6328 24.2651 5.2002 17.4998 5.2002C10.7344 5.2002 5.24976 10.6328 5.24976 17.3341C5.24976 24.0355 10.7344 29.4681 17.4998 29.4681Z" transform="translate(0 0.331543)" fill="white"/>
<path fill-rule="evenodd" clip-rule="evenodd" d="M17.5 34.6685C27.165 34.6685 35 26.9076 35 17.3342C35 7.76074 27.165 0 17.5 0C7.83496 0 0 7.76074 0 17.3342C0 26.9076 7.83496 34.6685 17.5 34.6685ZM17.4998 29.4681C24.2651 29.4681 29.7498 24.0355 29.7498 17.3341C29.7498 10.6328 24.2651 5.2002 17.4998 5.2002C10.7344 5.2002 5.24976 10.6328 5.24976 17.3341C5.24976 24.0355 10.7344 29.4681 17.4998 29.4681Z" transform="translate(0 0.331543)" fill="white"/>
<path fill-rule="evenodd" clip-rule="evenodd" d="M0 17.3317C1.08667 17.9984 4.27148 19.3282 4.52563 18.5C6.74731 18.5 9.85864 25.306 11.3328 28.5306C11.6455 29.2147 11.8845 29.7375 12.0256 30C12.1572 30.006 13.2571 30.9882 14.373 31.9846C15.2205 32.7411 16.0769 33.5056 16.5256 33.8575V17.3318L16.5251 0V17.3317H0Z" transform="translate(18.4744 -17)" fill="white"/>
<ellipse cx="8.74998" cy="8.66711" rx="8.74998" ry="8.66711" transform="translate(8.75 8.99866)" fill="white"/>
</svg>
