<svg width="83" height="136" viewBox="0 0 83 136" fill="none" xmlns="http://www.w3.org/2000/svg">
<path d="M2.45889 36V8.4604H12.1053C15.4469 8.4604 17.9814 9.10349 19.709 10.3897C21.4365 11.6633 22.3003 13.5358 22.3003 16.0073C22.3003 17.3565 21.9535 18.5482 21.26 19.5822C20.5664 20.6035 19.6018 21.3538 18.366 21.833C19.7783 22.1861 20.888 22.8985 21.695 23.9703C22.5146 25.0422 22.9244 26.3536 22.9244 27.9046C22.9244 30.5526 22.0796 32.5575 20.3899 33.9194C18.7002 35.2812 16.2917 35.9748 13.1645 36H2.45889ZM8.13326 24.0082V31.4416H12.9943C14.3309 31.4416 15.3712 31.1263 16.1152 30.4959C16.8718 29.8528 17.2501 28.9701 17.2501 27.8478C17.2501 25.3259 15.945 24.046 13.3348 24.0082H8.13326ZM8.13326 19.9983H12.3323C15.1947 19.9478 16.6259 18.8067 16.6259 16.5747C16.6259 15.3264 16.2602 14.4311 15.5289 13.8889C14.8101 13.3341 13.6689 13.0566 12.1053 13.0566H8.13326V19.9983ZM36.2592 36.3783C33.2581 36.3783 30.8118 35.4578 28.9204 33.6168C27.0415 31.7757 26.1021 29.3232 26.1021 26.259V25.7294C26.1021 23.674 26.4993 21.8393 27.2937 20.2253C28.0881 18.5986 29.2104 17.3502 30.6605 16.4802C32.1232 15.5975 33.7877 15.1562 35.6539 15.1562C38.4533 15.1562 40.6537 16.0388 42.2551 17.8042C43.8692 19.5696 44.6762 22.0726 44.6762 25.3133V27.5452H31.6441C31.8206 28.8818 32.3502 29.9536 33.2329 30.7607C34.1282 31.5677 35.2567 31.9712 36.6186 31.9712C38.7244 31.9712 40.37 31.2083 41.5553 29.6825L44.2412 32.69C43.4215 33.85 42.3119 34.7579 40.9122 35.4136C39.5125 36.0567 37.9615 36.3783 36.2592 36.3783ZM35.635 19.5822C34.5506 19.5822 33.6679 19.9478 32.987 20.6792C32.3187 21.4106 31.89 22.4572 31.7008 23.819H39.3045V23.384C39.2792 22.1735 38.9514 21.2403 38.3209 20.5846C37.6904 19.9163 36.7951 19.5822 35.635 19.5822ZM53.566 36H48.0808V6.94723H53.566V36ZM57.2355 25.5781C57.2355 23.5479 57.6264 21.7384 58.4082 20.1496C59.19 18.5608 60.3122 17.3313 61.775 16.4613C63.2503 15.5912 64.9589 15.1562 66.9008 15.1562C69.6623 15.1562 71.9132 16.001 73.6533 17.6907C75.4061 19.3804 76.3833 21.6754 76.5851 24.5756L76.6229 25.9753C76.6229 29.1151 75.7465 31.637 73.9938 33.5411C72.241 35.4326 69.8893 36.3783 66.9386 36.3783C63.988 36.3783 61.6299 35.4326 59.8646 33.5411C58.1118 31.6497 57.2355 29.0773 57.2355 25.824V25.5781ZM62.7018 25.9753C62.7018 27.9172 63.0675 29.4051 63.7988 30.4391C64.5302 31.4605 65.5768 31.9712 66.9386 31.9712C68.2627 31.9712 69.2966 31.4668 70.0406 30.458C70.7846 29.4366 71.1566 27.81 71.1566 25.5781C71.1566 23.674 70.7846 22.1987 70.0406 21.1521C69.2966 20.1055 68.25 19.5822 66.9008 19.5822C65.5642 19.5822 64.5302 20.1055 63.7988 21.1521C63.0675 22.1861 62.7018 23.7938 62.7018 25.9753Z" transform="translate(0 60.0273)" fill="black"/>
<ellipse cx="17.5" cy="17.3342" rx="17.5" ry="17.3342" transform="translate(24 17.3315)" fill="black"/>
<path fill-rule="evenodd" clip-rule="evenodd" d="M0 17.3317C0.162109 26.4957 7.63159 33.8945 16.8835 34.0549V17.3318L16.8831 0V17.3317H0Z" transform="translate(42.1165)" fill="black"/>
<ellipse cx="12.25" cy="12.134" rx="12.25" ry="12.134" transform="translate(29.2498 22.5317)" fill="white"/>
<ellipse cx="8.74998" cy="8.66711" rx="8.74998" ry="8.66711" transform="translate(32.75 25.9987)" fill="black"/>
<path d="M17.3919 9.79248H11.065V27H6.80924V9.79248H0.567437V6.3453H17.3919V9.79248ZM32.1266 19.4389H28.7361V27H24.4804V6.3453H32.1549C34.5949 6.3453 36.4769 6.88909 37.8009 7.97668C39.125 9.06427 39.787 10.6011 39.787 12.5871C39.787 13.9962 39.4796 15.1737 38.8649 16.1194C38.2596 17.0557 37.3375 17.8028 36.0986 18.3608L40.5672 26.8014V27H35.9993L32.1266 19.4389ZM28.7361 15.9917H32.1691C33.2378 15.9917 34.0653 15.7222 34.6517 15.1831C35.238 14.6346 35.5312 13.8828 35.5312 12.9276C35.5312 11.9535 35.2522 11.1874 34.6942 10.6294C34.1457 10.0715 33.2993 9.79248 32.1549 9.79248H28.7361V15.9917ZM52.2093 27H47.9535V6.3453H52.2093V27ZM65.0714 19.7226V27H60.8156V6.3453H68.8732C70.4242 6.3453 71.7861 6.62902 72.9588 7.19645C74.1409 7.76389 75.0488 8.57249 75.6825 9.62225C76.3161 10.6625 76.6329 11.8494 76.6329 13.1829C76.6329 15.2068 75.9378 16.8051 74.5476 17.9778C73.1668 19.141 71.2517 19.7226 68.8023 19.7226H65.0714ZM65.0714 16.2754H68.8732C69.9986 16.2754 70.8545 16.0106 71.4409 15.481C72.0367 14.9514 72.3346 14.1948 72.3346 13.2113C72.3346 12.1994 72.0367 11.3813 71.4409 10.7571C70.8451 10.1329 70.0223 9.81139 68.9725 9.79248H65.0714V16.2754Z" transform="translate(0 101.246)" fill="#919191"/>
</svg>
